<?xml version="1.0" standalone="no"?>
<!DOCTYPE svg PUBLIC "-//W3C//DTD SVG 1.1//EN" "http://www.w3.org/Graphics/SVG/1.1/DTD/svg11.dtd">
<svg t="1660377710092" class="icon" viewBox="0 0 1024 1024" version="1.1" xmlns="http://www.w3.org/2000/svg" p-id="9385" xmlns:xlink="http://www.w3.org/1999/xlink" width="200" height="200">
  <defs>
    <style type="text/css"></style>
  </defs>
  <path d="M787.029333 235.818667c-54.4-55.893333-125.269333-89.6-207.573333-102.229334-63.701333-9.386667-130.56-5.802667-191.786667 14.933334l-29.696 11.52c-120.106667 52.650667-207.104 166.314667-225.962666 296.106666-12.117333 83.2 3.285333 172.032 41.173333 247.04 39.082667 77.312 103.893333 129.834667 184.106667 160.768 87.893333 33.92 185.6 42.410667 275.882666 12.373334a387.413333 387.413333 0 0 0 247.808-257.792c29.141333-100.906667 13.994667-213.674667-37.12-305.92a360.106667 360.106667 0 0 0-56.789333-76.885334zM516.266667 256a72.533333 72.533333 0 1 1 0 145.066667 72.533333 72.533333 0 1 1 0-145.066667z m54.954666 460.8H465.066667v-232.96l105.728-51.2v284.16z" p-id="9386" fill="#ffffff"></path>
</svg>