<?xml version="1.0" encoding="UTF-8" standalone="no"?>
<!DOCTYPE svg PUBLIC "-//W3C//DTD SVG 1.1//EN" "http://www.w3.org/Graphics/SVG/1.1/DTD/svg11.dtd">
<svg width="100%" height="100%" viewBox="0 0 320 200" version="1.1" xmlns="http://www.w3.org/2000/svg" xmlns:xlink="http://www.w3.org/1999/xlink" style="fill-rule:evenodd;clip-rule:evenodd;stroke-linejoin:round;stroke-miterlimit:2;">
<path d="M309.144,189.12c2.225,-3.792 0.952,-8.677 -2.84,-10.901l-282.65,-165.81c-3.793,-2.225 -8.678,-0.952 -10.902,2.84c-2.225,3.793 -0.952,8.677 2.84,10.902l282.651,165.81c3.792,2.224 8.677,0.952 10.901,-2.841Z" style="fill:#fff;"/>
<path d="M57.835,62.193l204.763,120.119c-7.295,10.773 -19.666,17.771 -33.399,17.687l-29.2,0c-8.671,-0.724 -16.762,-4.675 -22.666,-11.066c-2.471,-2.382 -5.769,-3.72 -9.2,-3.734l-16.4,0c-3.432,0.014 -6.729,1.352 -9.2,3.734c-5.871,6.362 -13.91,10.31 -22.533,11.066l-29.467,0c-20.378,0.124 -37.759,-15.345 -40,-35.6l-7.467,-66.666c-0.161,-1.461 -0.242,-2.931 -0.242,-4.401c-0,-12.523 5.881,-23.78 15.011,-31.139Zm-44.502,31.14c-7.314,-0 -13.333,6.019 -13.333,13.333l-0,53.333c0.001,7.314 6.019,13.332 13.333,13.332c7.314,0 13.333,-6.018 13.334,-13.332l-0,-53.333c-0,-7.314 -6.019,-13.333 -13.334,-13.333Zm293.332,-0c-7.314,-0 -13.333,6.019 -13.333,13.333l0,52.682l9.509,5.578c3.282,1.925 5.714,4.749 7.166,7.975c5.719,-1.498 9.991,-6.74 9.992,-12.902l-0,-53.333c-0,-7.314 -6.019,-13.333 -13.334,-13.333Zm-194.052,-40l124.319,0c11.349,0.023 22.168,4.875 29.734,13.333c7.594,8.459 11.234,19.766 10,31.067l-5.448,48.642l-158.605,-93.042Zm20.72,-26.666l53.333,-0c7.314,-0.001 13.332,-6.02 13.332,-13.334c-0,-7.314 -6.018,-13.332 -13.332,-13.333l-53.333,-0c-7.314,0.001 -13.332,6.019 -13.332,13.333c0,7.314 6.018,13.333 13.332,13.334Z" style="fill:#fff;fill-rule:nonzero;"/>
</svg>